<svg width="105" height="104" viewBox="0 0 105 104" fill="none" xmlns="http://www.w3.org/2000/svg">
<g clip-path="url(#clip0_853_380)">
<path d="M104.5 0H0.5V104H104.5V0Z" fill="white"/>
<path d="M13.6443 41.311H15.811V44.6333H19.3498V41.311H21.4443V49.9777H19.3498V46.3666H15.811V49.9777H13.6443V41.311Z" fill="black"/>
<path d="M30.5444 41.311H28.45V49.9777H30.5444V41.311Z" fill="black"/>
<path d="M36.6831 49.2555L37.5498 47.8111C37.7664 47.9555 38.4164 48.4611 39.3553 48.4611C40.1498 48.4611 40.5831 48.1 40.5831 47.5944C40.5831 46.9444 39.7164 46.8 38.7053 46.2222C37.622 45.7166 36.8998 44.9944 36.8998 43.6222C36.8998 42.1055 38.1276 41.1666 39.7887 41.1666C41.2331 41.1666 42.0276 41.6 42.3887 41.8888L41.5942 43.3333C41.3053 43.1888 40.5831 42.8277 39.9331 42.8277C39.2831 42.8277 38.922 43.1166 38.922 43.6222C38.922 44.2 39.572 44.4166 40.5109 44.85C41.6664 45.3555 42.6776 45.9333 42.6776 47.5222C42.6776 49.1833 41.4498 50.1944 39.4998 50.1944C37.9831 50.1222 37.0442 49.6166 36.6831 49.2555Z" fill="black"/>
<path d="M49.972 43.0444H47.6609V41.311H54.4498V43.0444H52.0664V49.9777H49.972V43.0444Z" fill="black"/>
<path d="M58.8555 45.6444C58.8555 43.3333 60.4444 41.1666 63.4055 41.1666C66.3666 41.1666 67.9555 43.2611 67.9555 45.5722C67.9555 47.8833 66.4388 50.1222 63.4777 50.1222C60.4444 50.1222 58.8555 47.9555 58.8555 45.6444ZM65.7166 45.6444C65.7166 44.1277 65.0666 42.8277 63.4777 42.8277C61.8166 42.8277 61.0944 44.0555 61.0944 45.5722C61.0944 47.0888 61.8166 48.4611 63.4055 48.4611C64.9944 48.4611 65.7166 47.1611 65.7166 45.6444Z" fill="black"/>
<path d="M72.8665 41.311H75.8998C77.9942 41.311 79.222 42.1777 79.222 43.8388C79.222 45.2833 78.2831 45.9333 77.3442 46.2221C77.6331 46.4388 77.922 46.7999 78.4276 47.5221L79.9442 49.9777H77.6331L76.1165 47.5221C75.5387 46.6555 75.3942 46.5833 75.0331 46.5833H74.9609V49.9777H72.8665V41.311ZM75.8276 45.0666C76.6942 45.0666 77.1276 44.6333 77.1276 43.9833C77.1276 43.261 76.6942 42.8999 75.7553 42.8999H74.8887V45.1388H75.8276V45.0666Z" fill="black"/>
<path d="M87.0222 46.7277L84.1333 41.311H86.4444L88.1055 44.7777H88.1777L89.8389 41.311H91.8611L89.1166 46.7277V49.9777H87.0222V46.7277Z" fill="black"/>
<path d="M39.3553 27.4444H37.0442V25.7111H43.8331V27.4444H41.4497V34.3777H39.3553V27.4444Z" fill="black"/>
<path d="M48.311 30.9833V25.7111H50.4055V30.8388C50.4055 32.2111 50.8388 32.8611 52.1388 32.8611C53.3666 32.8611 53.7999 32.1388 53.7999 30.9833V25.7833H55.7499V30.8388C55.7499 33.2944 54.5221 34.5944 52.1388 34.5944C49.5388 34.5222 48.311 33.2944 48.311 30.9833Z" fill="black"/>
<path d="M66.5111 31.9222C66.0777 31.1999 65.7166 30.8388 65.4277 30.6222C66.3666 30.4055 67.3055 29.6833 67.3055 28.2388C67.3055 26.5777 66.0777 25.7111 63.9833 25.7111H60.95V34.3777H63.0444V30.9833H63.1166C63.4777 30.9833 63.6222 31.0555 64.2 31.9222L65.7166 34.3777H68.0277L66.5111 31.9222ZM64.0555 29.4666H63.1166V27.2277H63.9833C64.9222 27.2277 65.3555 27.5888 65.3555 28.3111C65.2833 29.1055 64.9222 29.4666 64.0555 29.4666Z" fill="black"/>
<path d="M77.1276 25.7111H75.1054L71.7832 34.3777H73.8776L74.3832 32.9333H77.7054L78.211 34.3777H80.5221L77.1276 25.7111ZM75.0332 31.2722L75.6832 29.4666C75.8999 28.7444 76.0443 28.0944 76.1165 27.9499C76.1888 28.0944 76.261 28.7444 76.5499 29.4666L77.1999 31.2722H75.0332Z" fill="black"/>
<path d="M85.3608 25.7111H87.5275V32.7166H91.3553V34.3777H85.3608V25.7111Z" fill="black"/>
<path d="M13.6443 25.7111H15.7387L18.5554 29.7555C19.1332 30.5499 19.4221 31.1999 19.4943 31.2722C19.4943 31.1999 19.4221 30.5499 19.4221 29.8277V25.7111H21.4443V34.3777H19.5665L16.461 30.0444C15.9554 29.3222 15.6665 28.8166 15.5943 28.6722C15.5943 28.7444 15.6665 29.3222 15.6665 29.9V34.3777H13.7887V25.7111H13.6443Z" fill="black"/>
<path d="M28.8833 25.7111H30.9055L34.2999 34.3777H31.9888L31.4833 32.9333H28.161L27.6555 34.3777H25.561L28.8833 25.7111ZM30.9777 31.2722L30.3277 29.4666C30.0388 28.7444 29.9666 28.0944 29.8944 27.9499C29.8221 28.0944 29.6777 28.7444 29.461 29.4666L28.811 31.2722H30.9777Z" fill="black"/>
<path d="M14.3666 56.911H16.3888L17.9777 62.0388C18.1944 62.6166 18.3388 63.3388 18.4111 63.4832C18.4833 63.3388 18.6277 62.6166 18.8444 62.0388L20.5055 56.911H22.5277L23.6833 65.5777H21.5166L21.0111 61.461C20.9388 60.811 20.8666 60.3055 20.8666 60.161C20.7944 60.3055 20.7222 60.811 20.5055 61.3888L19.2055 65.5055H17.1111L15.8111 61.3888C15.6666 60.8832 15.5222 60.3055 15.4499 60.161C15.4499 60.3055 15.3777 60.8832 15.3777 61.461L14.8722 65.5055H12.9944L14.3666 56.911Z" fill="black"/>
<path d="M29.6055 62.1832V56.911H31.6999V62.0388C31.6999 63.411 32.1332 64.061 33.4332 64.061C34.661 64.061 35.0944 63.3388 35.0944 62.111V56.911H37.0444V61.9666C37.0444 64.4221 35.8166 65.7221 33.4332 65.7221C30.9055 65.7221 29.6055 64.4943 29.6055 62.1832Z" fill="black"/>
<path d="M43.1833 64.8555L44.05 63.411C44.2667 63.5555 44.9167 64.061 45.8556 64.061C46.65 64.061 47.0834 63.6999 47.0834 63.1944C47.0834 62.5444 46.2167 62.3999 45.2056 61.8222C44.1222 61.3166 43.4 60.5944 43.4 59.2222C43.4 57.7055 44.6278 56.7666 46.2889 56.7666C47.7334 56.7666 48.5278 57.1999 48.8889 57.4888L48.0945 58.9333C47.8056 58.7166 47.1556 58.4277 46.4333 58.4277C45.7833 58.4277 45.4222 58.7166 45.4222 59.2222C45.4222 59.7999 46.0722 60.0166 47.0111 60.4499C48.1667 60.9555 49.1778 61.5333 49.1778 63.1222C49.1778 64.7833 47.95 65.7944 46 65.7944C44.4834 65.7222 43.5445 65.2166 43.1833 64.8555Z" fill="black"/>
<path d="M55.6055 56.911H60.7332V58.6443H57.6277V60.3055H60.3721V61.8943H57.6277V63.8443H60.8055V65.5777H55.6055V56.911Z" fill="black"/>
<path d="M67.3777 62.1832V56.911H69.4721V62.0388C69.4721 63.411 69.9055 64.061 71.2055 64.061C72.4332 64.061 72.8666 63.3388 72.8666 62.111V56.911H74.8166V61.9666C74.8166 64.4221 73.5888 65.7221 71.2055 65.7221C68.6777 65.7221 67.3777 64.4943 67.3777 62.1832Z" fill="black"/>
<path d="M81.8943 56.911H83.9165L85.5054 62.0388C85.7221 62.6166 85.8665 63.3388 85.9387 63.4832C86.011 63.3388 86.1554 62.6166 86.3721 62.0388L88.0332 56.911H90.0554L91.2109 65.5777H89.0443L88.5387 61.461C88.4665 60.811 88.3943 60.3055 88.3943 60.161C88.3221 60.3055 88.2498 60.811 88.0332 61.3888L86.7332 65.5055H84.6387L83.3387 61.3888C83.1943 60.8832 83.0498 60.3055 82.9776 60.161C82.9776 60.3055 82.9054 60.8832 82.9054 61.461L82.3998 65.5055H80.6665L81.8943 56.911Z" fill="black"/>
<path d="M31.1221 73.0167H30.111L28.3777 77.4945H29.461L29.7499 76.7723H31.411L31.6999 77.4945H32.8555L31.1221 73.0167ZM30.0388 75.8334L30.3277 74.8945C30.4721 74.5334 30.5444 74.1723 30.5444 74.1001C30.5444 74.1723 30.6166 74.4612 30.761 74.8945L31.1221 75.8334H30.0388Z" fill="black"/>
<path d="M33.8665 73.0167H34.9498L36.3942 75.1112C36.6831 75.5445 36.8276 75.8334 36.8998 75.9056C36.8998 75.8334 36.8998 75.5445 36.8998 75.1834V73.0889H37.8387V77.5667H36.8276L35.2387 75.3278C34.9498 74.9667 34.8053 74.6778 34.8053 74.6056C34.8053 74.6778 34.8053 74.8945 34.8053 75.2556V77.5667H33.8665V73.0167Z" fill="black"/>
<path d="M39.1389 75.2556C39.1389 74.0278 40.0778 72.9445 41.5945 72.9445C42.3167 72.9445 42.75 73.0889 43.1111 73.3778L42.6778 74.1722C42.3889 74.0278 42.1 73.8833 41.6667 73.8833C40.8 73.8833 40.3667 74.4611 40.3667 75.2556C40.3667 76.05 40.7278 76.7 41.5945 76.7C41.8834 76.7 42.1722 76.6278 42.2445 76.5556V75.7611H41.45V74.9667H43.2556V77.1333C42.9667 77.35 42.4611 77.5667 41.5222 77.5667C39.9334 77.5667 39.1389 76.4111 39.1389 75.2556Z" fill="black"/>
<path d="M44.8442 73.0167H47.4442V73.8834H45.8553V74.7501H47.2998V75.5445H45.8553V76.5556H47.5165V77.4223H44.8442V73.0167Z" fill="black"/>
<path d="M49.0332 73.0167H50.1165V76.5556H51.7054V77.4223H49.0332V73.0167Z" fill="black"/>
<path d="M52.9333 73.0167H55.6056V73.8834H54.0167V74.7501H55.3889V75.5445H54.0167V76.5556H55.6056V77.4223H52.9333V73.0167Z" fill="black"/>
<path d="M56.6165 77.1333L57.0498 76.4111C57.122 76.4833 57.4831 76.7 57.9887 76.7C58.422 76.7 58.6387 76.4833 58.6387 76.2667C58.6387 75.9056 58.2053 75.8333 57.6276 75.6167C57.0498 75.3278 56.6887 74.9667 56.6887 74.2445C56.6887 73.45 57.3387 72.9445 58.2053 72.9445C58.9276 72.9445 59.3609 73.1611 59.5776 73.3056L59.1442 74.0278C58.9998 73.9556 58.6387 73.7389 58.2776 73.7389C57.9165 73.7389 57.772 73.8833 57.772 74.1722C57.772 74.4611 58.1331 74.6056 58.5665 74.8222C59.1442 75.1111 59.6498 75.4 59.6498 76.1945C59.6498 77.0611 58.9998 77.5667 57.9887 77.5667C57.3387 77.5667 56.8331 77.2778 56.6165 77.1333Z" fill="black"/>
<path d="M62.7554 75.2556C62.7554 74.0278 63.5498 72.9445 65.0665 72.9445C65.6443 72.9445 66.0776 73.0889 66.4387 73.3056L65.9331 74.1C65.7165 73.9556 65.4276 73.8111 64.9943 73.8111C64.1998 73.8111 63.8387 74.3889 63.8387 75.1833C63.8387 75.9778 64.1998 76.6278 65.0665 76.6278C65.572 76.6278 65.7887 76.4833 66.0776 76.2667L66.5109 76.9889C66.2943 77.2056 65.7165 77.4945 65.0665 77.4945C63.5498 77.5667 62.7554 76.4111 62.7554 75.2556Z" fill="black"/>
<path d="M67.3054 75.2556C67.3054 74.0278 68.0999 72.9445 69.6165 72.9445C71.1332 72.9445 71.9276 74.0278 71.9276 75.2556C71.9276 76.4833 71.1332 77.5667 69.6165 77.5667C68.0999 77.5667 67.3054 76.4111 67.3054 75.2556ZM70.7721 75.2556C70.7721 74.4611 70.411 73.8111 69.6165 73.8111C68.7499 73.8111 68.3888 74.4611 68.3888 75.2556C68.3888 76.05 68.7499 76.7 69.5443 76.7C70.4832 76.7 70.7721 75.9778 70.7721 75.2556Z" fill="black"/>
<path d="M73.011 75.6889V73.0167H74.0943V75.6167C74.0943 76.3389 74.311 76.6278 74.961 76.6278C75.611 76.6278 75.8277 76.2667 75.8277 75.6167V72.9445H76.8388V75.5445C76.8388 76.7722 76.1888 77.4945 74.961 77.4945C73.661 77.5667 73.011 76.9167 73.011 75.6889Z" fill="black"/>
<path d="M78.1387 73.0167H79.222L80.6664 75.1112C80.9553 75.5445 81.0998 75.8334 81.172 75.9056C81.172 75.8334 81.172 75.5445 81.172 75.1834V73.0889H82.1109V77.5667H81.0998L79.5109 75.3278C79.222 74.9667 79.0776 74.6778 79.0776 74.6056C79.0776 74.6778 79.0776 74.8945 79.0776 75.2556V77.5667H78.1387V73.0167Z" fill="black"/>
<path d="M84.4944 73.8834H83.2666V73.0167H86.8055V73.8834H85.5777V77.4223H84.4944V73.8834Z" fill="black"/>
<path d="M89.0443 75.7612L87.5999 73.0167H88.7554L89.6221 74.7501L90.4887 73.0167H91.5721L90.1276 75.7612V77.4223H89.0443V75.7612Z" fill="black"/>
<path d="M19.3499 72.9445C17.8333 72.9445 17.0388 74.0278 17.0388 75.2556C17.0388 76.4833 17.8333 77.5667 19.4222 77.5667C20.9388 77.5667 21.7333 76.4111 21.7333 75.2556C21.661 74.0278 20.8666 72.9445 19.3499 72.9445ZM19.3499 76.7C18.5555 76.7 18.1944 76.05 18.1944 75.2556C18.1944 74.4611 18.5555 73.8111 19.4222 73.8111C20.2888 73.8111 20.5777 74.4611 20.5777 75.2556C20.5777 76.05 20.2166 76.7 19.3499 76.7Z" fill="black"/>
<path d="M22.5276 77.1333L22.9609 76.4111C23.0331 76.4833 23.3943 76.7 23.8998 76.7C24.3331 76.7 24.5498 76.4833 24.5498 76.2666C24.5498 75.9055 24.1165 75.8333 23.5387 75.5444C22.9609 75.2555 22.5998 74.8944 22.5998 74.1722C22.5998 73.3777 23.2498 72.8722 24.1165 72.8722C24.8387 72.8722 25.272 73.0889 25.4887 73.2333L25.0554 73.9555C24.9109 73.8833 24.5498 73.6666 24.1887 73.6666C23.8276 73.6666 23.6831 73.8111 23.6831 74.1C23.6831 74.3889 24.0443 74.5333 24.4776 74.75C25.0554 75.0389 25.5609 75.3277 25.5609 76.1222C25.5609 76.9889 24.9831 77.4944 23.8998 77.4944C23.1776 77.5666 22.7443 77.2777 22.5276 77.1333Z" fill="black"/>
<path d="M13.6443 73.0166H14.7998V76.6277H16.3887V77.4222H13.6443V73.0166Z" fill="black"/>
</g>
<defs>
<clipPath id="clip0_853_380">
<rect width="104" height="104" fill="white" transform="translate(0.5)"/>
</clipPath>
</defs>
</svg>
